<svg width="679" height="858" viewBox="0 0 679 858" fill="none" xmlns="http://www.w3.org/2000/svg">
<g filter="url(#filter0_g_461_217)">
<mask id="path-1-inside-1_461_217" fill="white">
<path d="M332.63 38.1328C426.93 38.1328 509.364 58.8494 554.061 89.7305H653.1C666.354 89.7305 677.1 100.476 677.1 113.73V832.001C677.1 845.256 666.354 856.001 653.1 856.001H25.0996C11.8448 856.001 1.09961 845.256 1.09961 832.001V113.73C1.09961 100.476 11.8448 89.7305 25.0996 89.7305H111.199C155.896 58.8494 238.33 38.1328 332.63 38.1328Z"/>
</mask>
<path d="M332.63 38.1328C426.93 38.1328 509.364 58.8494 554.061 89.7305H653.1C666.354 89.7305 677.1 100.476 677.1 113.73V832.001C677.1 845.256 666.354 856.001 653.1 856.001H25.0996C11.8448 856.001 1.09961 845.256 1.09961 832.001V113.73C1.09961 100.476 11.8448 89.7305 25.0996 89.7305H111.199C155.896 58.8494 238.33 38.1328 332.63 38.1328Z" fill="url(#paint0_linear_461_217)"/>
<path d="M332.63 38.1328V35.1328V35.1328V38.1328ZM554.061 89.7305L552.355 92.1987L553.125 92.7305H554.061V89.7305ZM653.1 89.7305V86.7305V86.7305V89.7305ZM677.1 113.73H680.1H677.1ZM653.1 856.001V859.001V856.001ZM25.0996 856.001L25.0996 859.001H25.0996V856.001ZM25.0996 89.7305V86.7305V89.7305ZM111.199 89.7305V92.7305H112.135L112.905 92.1987L111.199 89.7305ZM332.63 38.1328V41.1328C426.639 41.1328 508.371 61.8093 552.355 92.1987L554.061 89.7305L555.766 87.2623C510.358 55.8895 427.22 35.1328 332.63 35.1328V38.1328ZM554.061 89.7305V92.7305H653.1V89.7305V86.7305H554.061V89.7305ZM653.1 89.7305V92.7305C664.698 92.7305 674.1 102.132 674.1 113.73H677.1H680.1C680.1 98.8188 668.011 86.7305 653.1 86.7305V89.7305ZM677.1 113.73H674.1V832.001H677.1H680.1V113.73H677.1ZM677.1 832.001H674.1C674.1 843.599 664.698 853.001 653.1 853.001V856.001V859.001C668.011 859.001 680.1 846.913 680.1 832.001H677.1ZM653.1 856.001V853.001H25.0996V856.001V859.001H653.1V856.001ZM25.0996 856.001L25.0996 853.001C13.5016 853.001 4.09961 843.599 4.09961 832.001H1.09961H-1.90039C-1.90039 846.913 10.1879 859.001 25.0996 859.001L25.0996 856.001ZM1.09961 832.001H4.09961V113.73H1.09961H-1.90039V832.001H1.09961ZM1.09961 113.73H4.09961C4.09961 102.132 13.5016 92.7305 25.0996 92.7305V89.7305V86.7305C10.1879 86.7305 -1.90039 98.8188 -1.90039 113.73H1.09961ZM25.0996 89.7305V92.7305H111.199V89.7305V86.7305H25.0996V89.7305ZM111.199 89.7305L112.905 92.1987C156.889 61.8093 238.62 41.1328 332.63 41.1328V38.1328V35.1328C238.04 35.1328 154.902 55.8894 109.494 87.2623L111.199 89.7305Z" fill="#8F5A54" mask="url(#path-1-inside-1_461_217)"/>
</g>
<mask id="path-3-inside-2_461_217" fill="white">
<path d="M333.247 72C417.256 72 491.033 89.863 532.992 116.781H626.885C640.14 116.781 650.885 127.526 650.885 140.781V798.131C650.885 811.386 640.14 822.131 626.885 822.131H52.6289C39.3742 822.131 28.6289 811.386 28.6289 798.131V140.781C28.6289 127.527 39.3742 116.781 52.6289 116.781H133.502C175.461 89.8631 249.239 72 333.247 72Z"/>
</mask>
<g filter="url(#filter1_i_461_217)">
<path d="M333.247 72C417.256 72 491.033 89.863 532.992 116.781H626.885C640.14 116.781 650.885 127.526 650.885 140.781V798.131C650.885 811.386 640.14 822.131 626.885 822.131H52.6289C39.3742 822.131 28.6289 811.386 28.6289 798.131V140.781C28.6289 127.527 39.3742 116.781 52.6289 116.781H133.502C175.461 89.8631 249.239 72 333.247 72Z" fill="url(#paint1_linear_461_217)"/>
</g>
<path d="M333.247 72V70V70V72ZM532.992 116.781L531.912 118.465L532.406 118.781H532.992V116.781ZM650.885 140.781H652.885H650.885ZM52.6289 822.131L52.6289 824.131H52.6289V822.131ZM28.6289 140.781H26.6289V140.781H28.6289ZM52.6289 116.781V114.781H52.6289L52.6289 116.781ZM133.502 116.781V118.781H134.088L134.582 118.465L133.502 116.781ZM333.247 72V74C417.057 74 490.402 91.8339 531.912 118.465L532.992 116.781L534.072 115.098C491.665 87.892 417.455 70 333.247 70V72ZM532.992 116.781V118.781H626.885V116.781V114.781H532.992V116.781ZM626.885 116.781V118.781C639.035 118.781 648.885 128.631 648.885 140.781H650.885H652.885C652.885 126.422 641.244 114.781 626.885 114.781V116.781ZM650.885 140.781H648.885V798.131H650.885H652.885V140.781H650.885ZM650.885 798.131H648.885C648.885 810.281 639.035 820.131 626.885 820.131V822.131V824.131C641.244 824.131 652.885 812.49 652.885 798.131H650.885ZM626.885 822.131V820.131H52.6289V822.131V824.131H626.885V822.131ZM52.6289 822.131L52.6289 820.131C40.4787 820.131 30.6289 810.281 30.6289 798.131H28.6289H26.6289C26.6289 812.49 38.2696 824.131 52.6289 824.131L52.6289 822.131ZM28.6289 798.131H30.6289V140.781H28.6289H26.6289V798.131H28.6289ZM28.6289 140.781H30.6289C30.6289 128.631 40.4787 118.781 52.6289 118.781L52.6289 116.781L52.6289 114.781C38.2696 114.781 26.6289 126.422 26.6289 140.781H28.6289ZM52.6289 116.781V118.781H133.502V116.781V114.781H52.6289V116.781ZM133.502 116.781L134.582 118.465C176.093 91.834 249.438 74 333.247 74V72V70C249.04 70 174.829 87.8922 132.422 115.098L133.502 116.781Z" fill="#8F5A54" mask="url(#path-3-inside-2_461_217)"/>
<g filter="url(#filter2_d_461_217)">
<path d="M332.427 11.8388C334.399 7.32594 340.8 7.32593 342.772 11.8388L356.022 42.1655C356.591 43.4685 357.631 44.5087 358.934 45.078L389.261 58.3277C393.774 60.2993 393.774 66.7007 389.261 68.6723L358.934 81.922C357.631 82.4913 356.591 83.5315 356.022 84.8345L342.772 115.161C340.8 119.674 334.399 119.674 332.427 115.161L319.178 84.8345C318.608 83.5315 317.568 82.4913 316.265 81.922L285.938 68.6723C281.426 66.7007 281.426 60.2993 285.938 58.3277L316.265 45.078C317.568 44.5087 318.608 43.4685 319.178 42.1655L332.427 11.8388Z" fill="#FFFBE5"/>
<path d="M330.272 10.8975C333.066 4.50421 342.134 4.50421 344.927 10.8975L358.177 41.2236C358.509 41.9838 359.116 42.5908 359.876 42.9229L390.202 56.1729C396.595 58.966 396.595 68.034 390.202 70.8271L359.876 84.0771C359.116 84.4092 358.509 85.0162 358.177 85.7764L344.927 116.103C342.134 122.496 333.066 122.496 330.272 116.103L317.022 85.7764C316.69 85.0162 316.083 84.4092 315.323 84.0771L284.997 70.8271C278.604 68.034 278.604 58.966 284.997 56.1729L315.323 42.9229C316.083 42.5908 316.69 41.9838 317.022 41.2236L330.272 10.8975Z" stroke="#FFDB2A" stroke-width="4.7037"/>
</g>
<defs>
<filter id="filter0_g_461_217" x="-0.000390649" y="37.0328" width="678.2" height="820.067" filterUnits="userSpaceOnUse" color-interpolation-filters="sRGB">
<feFlood flood-opacity="0" result="BackgroundImageFix"/>
<feBlend mode="normal" in="SourceGraphic" in2="BackgroundImageFix" result="shape"/>
<feTurbulence type="fractalNoise" baseFrequency="0.045045044273138046 0.045045044273138046" numOctaves="3" seed="1727" />
<feDisplacementMap in="shape" scale="2.2000000476837158" xChannelSelector="R" yChannelSelector="G" result="displacedImage" width="100%" height="100%" />
<feMerge result="effect1_texture_461_217">
<feMergeNode in="displacedImage"/>
</feMerge>
</filter>
<filter id="filter1_i_461_217" x="28.6289" y="72" width="622.256" height="750.131" filterUnits="userSpaceOnUse" color-interpolation-filters="sRGB">
<feFlood flood-opacity="0" result="BackgroundImageFix"/>
<feBlend mode="normal" in="SourceGraphic" in2="BackgroundImageFix" result="shape"/>
<feColorMatrix in="SourceAlpha" type="matrix" values="0 0 0 0 0 0 0 0 0 0 0 0 0 0 0 0 0 0 127 0" result="hardAlpha"/>
<feOffset dy="9"/>
<feComposite in2="hardAlpha" operator="arithmetic" k2="-1" k3="1"/>
<feColorMatrix type="matrix" values="0 0 0 0 0.560784 0 0 0 0 0.352941 0 0 0 0 0.329412 0 0 0 1 0"/>
<feBlend mode="normal" in2="shape" result="effect1_innerShadow_461_217"/>
</filter>
<filter id="filter2_d_461_217" x="277.85" y="3.75" width="120.441" height="129.105" filterUnits="userSpaceOnUse" color-interpolation-filters="sRGB">
<feFlood flood-opacity="0" result="BackgroundImageFix"/>
<feColorMatrix in="SourceAlpha" type="matrix" values="0 0 0 0 0 0 0 0 0 0 0 0 0 0 0 0 0 0 127 0" result="hardAlpha"/>
<feOffset dx="0.940741" dy="9.60504"/>
<feComposite in2="hardAlpha" operator="out"/>
<feColorMatrix type="matrix" values="0 0 0 0 0.560784 0 0 0 0 0.352941 0 0 0 0 0.329412 0 0 0 1 0"/>
<feBlend mode="normal" in2="BackgroundImageFix" result="effect1_dropShadow_461_217"/>
<feBlend mode="normal" in="SourceGraphic" in2="effect1_dropShadow_461_217" result="shape"/>
</filter>
<linearGradient id="paint0_linear_461_217" x1="339.1" y1="4.00098" x2="339.1" y2="856.001" gradientUnits="userSpaceOnUse">
<stop stop-color="#EBB5A0"/>
<stop offset="1" stop-color="#BA7B63"/>
</linearGradient>
<linearGradient id="paint1_linear_461_217" x1="339.609" y1="-179.63" x2="339.768" y2="822.131" gradientUnits="userSpaceOnUse">
<stop stop-color="#F2CDBF"/>
<stop offset="1" stop-color="#F0B49E"/>
</linearGradient>
</defs>
</svg>
